<svg width="120" height="58" viewBox="0 0 120 58" fill="none" xmlns="http://www.w3.org/2000/svg">
<path d="M61.1521 24.2479C60.9672 24.3767 60.7516 24.5072 60.5053 24.6394C60.2969 24.7493 60.0489 24.8632 59.7615 24.9811C59.4756 25.1048 59.1545 25.2127 58.7981 25.3047C55.9586 26.0382 54.1472 24.8888 53.3639 21.8565C53.1451 21.0093 53.0595 20.2679 53.1073 19.6323C53.1535 18.9909 53.3021 18.4321 53.553 17.956C53.804 17.4798 54.1449 17.0864 54.5757 16.7757C55.0065 16.4649 55.4994 16.2379 56.0544 16.0945C56.7789 15.9074 57.4243 15.8965 57.9905 16.0618C58.5567 16.2272 59.0273 16.517 59.4023 16.9312C59.7816 17.338 60.0473 17.8116 60.1994 18.352C60.2401 18.5097 60.2827 18.7106 60.327 18.9547C60.3757 19.1914 60.4155 19.418 60.4465 19.6343C60.4818 19.8434 60.4968 19.9859 60.4915 20.0621L55.0492 21.4679L55.1307 21.7834C55.3253 22.5371 55.5925 23.1007 55.932 23.4742C56.2715 23.8477 56.6663 24.0729 57.1162 24.1499C57.5704 24.2195 58.0634 24.1857 58.5951 24.0483C58.9281 23.9623 59.2391 23.8633 59.528 23.7513C59.8213 23.6319 60.0787 23.5187 60.3003 23.4115C60.5613 23.288 60.7997 23.161 61.0152 23.0306L61.1521 24.2479ZM56.3996 17.2861C56.125 17.357 55.8705 17.4695 55.6361 17.6236C55.406 17.7703 55.2143 17.9694 55.0611 18.2208C54.908 18.4723 54.8035 18.7797 54.7478 19.1431C54.6964 19.4992 54.7211 19.9447 54.8219 20.4795L58.9672 19.4088C58.9385 19.2978 58.9226 19.224 58.9194 19.1874C58.9177 19.1567 58.9085 19.1092 58.8919 19.0449L58.858 18.9135C58.6429 18.1775 58.3142 17.689 57.8718 17.4481C57.4279 17.2013 56.9371 17.1473 56.3996 17.2861Z" fill="#373737"/>
<path d="M49.7466 27.6428C49.3493 27.7454 49.0005 27.7825 48.7003 27.7541C48.4 27.7257 48.1342 27.6136 47.9029 27.4179C47.4565 27.0408 47.0816 26.2651 46.7783 25.0907L45.4562 19.9726L44.2118 20.2941L43.9763 19.3826L45.2822 19.0453L44.7856 16.182L46.0258 15.5906L46.8158 18.6492L49.0594 18.0697L49.2948 18.9811L47.0776 19.5538L48.4879 25.0137C48.6509 25.6447 48.8136 26.0577 48.9762 26.2525C49.1445 26.4459 49.442 26.4874 49.8685 26.3773C50.0262 26.3365 50.1766 26.2914 50.3197 26.242C50.4612 26.1868 50.5874 26.1324 50.6982 26.0788L51.0459 25.9049L51.1977 27.0716C51.1512 27.1086 51.0973 27.1412 51.036 27.1695C50.9763 27.2036 50.9099 27.2363 50.837 27.2676C50.7145 27.3242 50.562 27.3854 50.3796 27.4512C50.203 27.5155 49.992 27.5794 49.7466 27.6428Z" fill="#373737"/>
<path d="M41.9947 27.4108C42.0822 27.7497 42.1716 27.951 42.2628 28.0147C42.3526 28.0725 42.5026 28.0743 42.7129 28.0199C42.7772 28.0033 42.8444 27.986 42.9145 27.9679C42.9889 27.9424 43.0554 27.9221 43.1138 27.907L43.2967 29.1218C43.2967 29.1218 43.2332 29.1414 43.1062 29.1804C42.985 29.2179 42.8492 29.2593 42.6988 29.3043C42.5499 29.3553 42.4287 29.3928 42.3353 29.4169C42.0022 29.503 41.7227 29.5066 41.4967 29.4279C41.2692 29.3433 41.0934 29.2298 40.9693 29.0873C40.8438 28.939 40.7674 28.8123 40.7403 28.7071C40.6613 28.9082 40.5233 29.134 40.3262 29.3843C40.1276 29.6288 39.8375 29.8689 39.4559 30.1046C39.0728 30.3345 38.5628 30.5316 37.9259 30.6961C37.1489 30.8969 36.4582 30.8291 35.8541 30.4928C35.2543 30.1491 34.8532 29.5858 34.651 28.8029C34.4699 28.1018 34.5246 27.5174 34.8151 27.0497C35.1057 26.582 35.5403 26.2018 36.1191 25.9089C36.6963 25.6102 37.3238 25.3734 38.0016 25.1983C38.2061 25.1455 38.407 25.1029 38.6043 25.0706C38.8001 25.0325 38.9755 24.9997 39.1304 24.9721L39.6306 24.9177L39.3747 23.9274C39.2133 23.3023 39.029 22.8544 38.822 22.5838C38.6135 22.3073 38.3474 22.1579 38.0238 22.1356C37.706 22.1117 37.2959 22.1647 36.7934 22.2944C36.2091 22.4454 35.6845 22.6463 35.2196 22.8973C34.759 23.1409 34.3737 23.3744 34.0637 23.5979L33.904 22.2555C34.1484 22.0677 34.4819 21.8632 34.9047 21.6418C35.3259 21.4146 35.8899 21.2097 36.5969 21.027C37.5434 20.7826 38.3032 20.7203 38.8764 20.8402C39.4496 20.9601 39.9029 21.2793 40.2363 21.7978C40.5755 22.3147 40.8673 23.0464 41.1118 23.9929L41.9947 27.4108ZM38.5248 26.1382C38.2677 26.2046 37.9823 26.2939 37.6685 26.4062C37.3532 26.5125 37.0631 26.656 36.7981 26.8367C36.5316 27.0114 36.3307 27.2348 36.1952 27.5066C36.0641 27.771 36.0483 28.0961 36.1479 28.4817C36.2641 28.9316 36.4933 29.2276 36.8354 29.3699C37.1834 29.5106 37.6232 29.5123 38.1549 29.3749C38.7509 29.221 39.2293 29.0102 39.5901 28.7424C39.9554 28.4673 40.2322 28.212 40.4206 27.9763L39.8705 25.8467L39.4343 25.9314L38.5248 26.1382Z" fill="#373737"/>
<path d="M31.6668 31.8642C31.482 31.9929 31.2664 32.1234 31.0201 32.2556C30.8116 32.3655 30.5637 32.4794 30.2763 32.5973C29.9904 32.721 29.6693 32.8289 29.3129 32.921C26.4734 33.6544 24.662 32.505 23.8787 29.4727C23.6599 28.6255 23.5743 27.8842 23.622 27.2486C23.6683 26.6072 23.8169 26.0484 24.0678 25.5722C24.3188 25.0961 24.6596 24.7026 25.0904 24.3919C25.5212 24.0812 26.0141 23.8541 26.5692 23.7108C27.2937 23.5236 27.939 23.5127 28.5053 23.6781C29.0715 23.8434 29.5421 24.1332 29.9171 24.5474C30.2964 24.9543 30.5621 25.4279 30.7141 25.9682C30.7549 26.126 30.7974 26.3269 30.8418 26.5709C30.8905 26.8077 30.9303 27.0342 30.9612 27.2506C30.9965 27.4596 31.0116 27.6022 31.0063 27.6783L25.5639 29.0841L25.6454 29.3996C25.8401 30.1533 26.1072 30.7169 26.4468 31.0904C26.7863 31.4639 27.181 31.6892 27.631 31.7661C28.0852 31.8358 28.5782 31.8019 29.1099 31.6646C29.4429 31.5786 29.7539 31.4795 30.0428 31.3675C30.336 31.2481 30.5935 31.1349 30.8151 31.0278C31.0761 30.9043 31.3144 30.7773 31.53 30.6468L31.6668 31.8642ZM26.9144 24.9024C26.6398 24.9733 26.3853 25.0858 26.1508 25.2398C25.9207 25.3865 25.7291 25.5856 25.5759 25.8371C25.4227 26.0885 25.3183 26.396 25.2626 26.7594C25.2112 27.1154 25.2359 27.5609 25.3367 28.0958L29.482 27.025C29.4533 26.914 29.4374 26.8402 29.4342 26.8037C29.4325 26.7729 29.4233 26.7254 29.4067 26.6612L29.3727 26.5297C29.1577 25.7937 28.829 25.3053 28.3866 25.0643C27.9426 24.8175 27.4519 24.7635 26.9144 24.9024Z" fill="#373737"/>
<path d="M17.5563 35.7895L15.2359 26.8065L16.3438 26.4268L16.9177 27.3817C17.166 26.9436 17.4727 26.5746 17.8377 26.2747C18.2027 25.9747 18.6073 25.7674 19.0513 25.6527C19.1682 25.6225 19.2851 25.6047 19.4021 25.5994C19.5177 25.5883 19.6223 25.5831 19.716 25.5838C19.8096 25.5845 19.9143 25.5918 20.0301 25.6055L20.161 26.9086C20.1331 26.8971 20.0869 26.8872 20.0224 26.8789C19.9727 26.8793 19.9025 26.885 19.8118 26.8959C19.7197 26.901 19.6035 26.9217 19.4632 26.9579C19.1302 27.0439 18.8348 27.167 18.577 27.3271C18.3192 27.4871 18.1009 27.6433 17.922 27.7954C17.8203 27.884 17.7229 27.9777 17.63 28.0765C17.5356 28.1694 17.4486 28.2667 17.3689 28.3683L19.1776 35.3707L17.5563 35.7895Z" fill="#373737"/>
<path d="M11.1049 37.6242C10.6199 37.7495 10.1271 37.7958 9.62625 37.7631C9.12545 37.7304 8.64789 37.5826 8.19359 37.3198C7.73194 37.0527 7.31314 36.6498 6.93718 36.1112C6.56122 35.5726 6.26383 34.8797 6.045 34.0325C5.89106 33.4366 5.80339 32.8921 5.78198 32.399C5.7649 31.8986 5.80164 31.4497 5.89221 31.0524C5.97543 30.6507 6.10955 30.3013 6.29457 30.0042C6.57493 29.5454 6.91826 29.1856 7.32456 28.9248C7.7352 28.6567 8.18007 28.4608 8.65916 28.337C9.04477 28.2374 9.40212 28.1732 9.7312 28.1443C10.0588 28.1095 10.3448 28.0948 10.5893 28.1002C10.8878 28.0979 11.1485 28.1178 11.3713 28.16L11.8084 29.3092C11.6868 29.2969 11.5572 29.2899 11.4196 29.2881C11.2863 29.2788 11.1488 29.277 11.0068 29.2825C10.7654 29.2888 10.4896 29.307 10.1796 29.3372C9.86955 29.3675 9.54801 29.4256 9.21498 29.5116C8.4087 29.7199 7.88143 30.1397 7.63315 30.771C7.50695 31.1027 7.44493 31.502 7.44711 31.9689C7.45514 32.4342 7.53763 32.9707 7.69458 33.5784C7.99491 34.741 8.42568 35.5522 8.9869 36.0118C9.26383 36.2394 9.56788 36.379 9.89906 36.4305C10.2287 36.4763 10.5893 36.4486 10.9807 36.3475C11.3138 36.2614 11.624 36.1595 11.9114 36.0416C12.2031 35.9164 12.4561 35.7981 12.6704 35.6866C12.9182 35.5603 13.1484 35.426 13.361 35.2839L13.5219 36.4857C13.3517 36.6231 13.1362 36.7661 12.8754 36.9144C12.67 37.0361 12.4155 37.161 12.1121 37.2892C11.8145 37.416 11.4788 37.5276 11.1049 37.6242Z" fill="#373737"/>
<path d="M39.9522 7.99463C40.0397 8.3335 40.1291 8.53478 40.2204 8.59847C40.3101 8.65631 40.4601 8.65807 40.6705 8.60373C40.7347 8.58713 40.8019 8.56978 40.872 8.55167C40.9465 8.52621 41.0129 8.50593 41.0713 8.49084L41.2542 9.70565C41.2542 9.70565 41.1907 9.72518 41.0637 9.76422C40.9425 9.80176 40.8067 9.84307 40.6563 9.88815C40.5074 9.93907 40.3863 9.97661 40.2928 10.0008C39.9597 10.0868 39.6802 10.0904 39.4542 10.0117C39.2267 9.92711 39.0509 9.81359 38.9269 9.67113C38.8013 9.52282 38.7249 9.39609 38.6978 9.29092C38.6188 9.49205 38.4808 9.71779 38.2837 9.96813C38.0851 10.2126 37.795 10.4527 37.4134 10.6884C37.0303 10.9183 36.5203 11.1154 35.8834 11.28C35.1064 11.4807 34.4158 11.4129 33.8116 11.0766C33.2118 10.7329 32.8107 10.1696 32.6085 9.38674C32.4274 8.68563 32.4821 8.10123 32.7727 7.63354C33.0632 7.16585 33.4978 6.78558 34.0766 6.49274C34.6538 6.19405 35.2813 5.95717 35.9591 5.78211C36.1636 5.72929 36.3645 5.68674 36.5618 5.65446C36.7576 5.61634 36.933 5.58351 37.0879 5.55595L37.5881 5.50156L37.3323 4.51124C37.1708 3.88608 36.9865 3.4382 36.7795 3.16758C36.571 2.89113 36.3049 2.74172 35.9813 2.71937C35.6635 2.6955 35.2534 2.74847 34.7509 2.87826C34.1667 3.02917 33.6421 3.23012 33.1771 3.4811C32.7165 3.72472 32.3312 3.95824 32.0212 4.18167L31.8615 2.83933C32.1059 2.65155 32.4395 2.44697 32.8622 2.2256C33.2834 1.99838 33.8475 1.79347 34.5544 1.61085C35.5009 1.36637 36.2608 1.30409 36.834 1.42402C37.4072 1.54395 37.8604 1.86314 38.1938 2.38157C38.533 2.8985 38.8248 3.63022 39.0693 4.57672L39.9522 7.99463ZM36.4823 6.72204C36.2253 6.78845 35.9398 6.87776 35.626 6.98998C35.3107 7.09635 35.0206 7.23985 34.7556 7.42048C34.4892 7.59526 34.2882 7.81856 34.1527 8.09039C34.0216 8.35486 34.0059 8.6799 34.1055 9.06551C34.2217 9.51539 34.4508 9.81144 34.793 9.95367C35.1409 10.0944 35.5808 10.0961 36.1124 9.95874C36.7084 9.8048 37.1868 9.59397 37.5477 9.32624C37.9129 9.05116 38.1897 8.7958 38.3781 8.56015L37.828 6.43053L37.3918 6.51516L36.4823 6.72204Z" fill="#373737"/>
<path d="M27.4982 13.446C27.0132 13.5712 26.5204 13.6175 26.0196 13.5848C25.5188 13.5522 25.0412 13.4044 24.5869 13.1416C24.1253 12.8744 23.7064 12.4715 23.3305 11.9329C22.9545 11.3943 22.6571 10.7015 22.4383 9.85429C22.2844 9.25834 22.1967 8.71384 22.1753 8.22077C22.1582 7.72036 22.195 7.27148 22.2855 6.87414C22.3687 6.47247 22.5029 6.12309 22.6879 5.826C22.9682 5.36717 23.3116 5.00737 23.7179 4.74661C24.1285 4.47849 24.5734 4.28256 25.0525 4.15881C25.4381 4.0592 25.7954 3.99494 26.1245 3.96603C26.4521 3.93127 26.7381 3.9166 26.9826 3.92201C27.2811 3.91968 27.5418 3.9396 27.7646 3.98177L28.2017 5.13093C28.0801 5.11871 27.9505 5.11167 27.8129 5.10982C27.6797 5.10061 27.5421 5.09876 27.4001 5.10426C27.1587 5.11053 26.8829 5.12879 26.5729 5.15901C26.2629 5.18924 25.9413 5.24737 25.6083 5.33339C24.802 5.54166 24.2747 5.96143 24.0265 6.59272C23.9003 6.92447 23.8382 7.32379 23.8404 7.79066C23.8484 8.25602 23.9309 8.79251 24.0879 9.40014C24.3882 10.5628 24.819 11.3739 25.3802 11.8335C25.6571 12.0611 25.9612 12.2007 26.2924 12.2523C26.622 12.298 26.9826 12.2703 27.374 12.1692C27.7071 12.0832 28.0173 11.9813 28.3047 11.8634C28.5964 11.7382 28.8494 11.6198 29.0637 11.5084C29.3116 11.3821 29.5418 11.2478 29.7543 11.1056L29.9152 12.3075C29.745 12.4449 29.5295 12.5878 29.2687 12.7362C29.0633 12.8578 28.8089 12.9828 28.5054 13.111C28.2078 13.2377 27.8721 13.3494 27.4982 13.446Z" fill="#373737"/>
<path d="M15.9929 16.4179C15.0931 16.6503 14.2976 16.647 13.6064 16.4079C12.9152 16.1689 12.3366 15.7388 11.8708 15.1174C11.4049 14.4961 11.0542 13.7297 10.8188 12.8183C10.452 11.3985 10.4835 10.1813 10.9132 9.16662C11.3488 8.15042 12.2413 7.468 13.591 7.11938C14.9348 6.77226 16.0404 6.93854 16.9077 7.61819C17.7809 8.29634 18.4009 9.34529 18.7676 10.765C19.0031 11.6765 19.0674 12.5168 18.9607 13.286C18.854 14.0552 18.5562 14.7118 18.0672 15.2557C17.5841 15.7981 16.8926 16.1854 15.9929 16.4179ZM15.6759 15.1909C16.1141 15.0777 16.4611 14.9009 16.7168 14.6603C16.9784 14.4182 17.1605 14.1219 17.2631 13.7713C17.3716 13.4192 17.4095 13.023 17.3768 12.5827C17.3425 12.1366 17.2613 11.6652 17.133 11.1686C16.8538 10.0877 16.4649 9.2938 15.9662 8.7869C15.4676 8.28 14.783 8.13898 13.9124 8.36385C13.4742 8.47704 13.1258 8.64807 12.8671 8.87695C12.6127 9.09847 12.4297 9.37945 12.3182 9.71987C12.211 10.0529 12.1716 10.4433 12.2 10.8909C12.2269 11.3327 12.3112 11.8282 12.4531 12.3774C12.5814 12.8741 12.7415 13.3251 12.9335 13.7304C13.1239 14.13 13.349 14.4583 13.6086 14.7153C13.874 14.9708 14.1739 15.1426 14.5083 15.2308C14.8485 15.3174 15.2377 15.3041 15.6759 15.1909Z" fill="#373737"/>
<path d="M6.27551 18.928C5.79058 19.0533 5.29771 19.0995 4.7969 19.0669C4.2961 19.0342 3.81855 18.8864 3.36425 18.6236C2.90259 18.3564 2.48379 17.9536 2.10783 17.415C1.73188 16.8764 1.43448 16.1835 1.21565 15.3363C1.06171 14.7404 0.974041 14.1959 0.95263 13.7028C0.935552 13.2024 0.972297 12.7535 1.06287 12.3562C1.14608 11.9545 1.2802 11.6051 1.46522 11.308C1.74558 10.8492 2.08891 10.4894 2.49522 10.2286C2.90586 9.96051 3.35073 9.76458 3.82982 9.64082C4.21543 9.54122 4.57278 9.47696 4.90186 9.44804C5.22943 9.41329 5.51545 9.39862 5.75991 9.40403C6.05847 9.4017 6.31914 9.42161 6.54194 9.46378L6.97901 10.613C6.85743 10.6007 6.72785 10.5937 6.59026 10.5918C6.457 10.5826 6.31941 10.5808 6.17748 10.5863C5.93604 10.5926 5.66029 10.6108 5.35025 10.641C5.0402 10.6713 4.71866 10.7294 4.38564 10.8154C3.57936 11.0237 3.05208 11.4435 2.80381 12.0747C2.6776 12.4065 2.61559 12.8058 2.61777 13.2727C2.62579 13.738 2.70828 14.2745 2.86524 14.8822C3.16556 16.0448 3.59634 16.856 4.15755 17.3155C4.43448 17.5432 4.73854 17.6828 5.06971 17.7343C5.39938 17.7801 5.75993 17.7524 6.15139 17.6512C6.48442 17.5652 6.79463 17.4633 7.08204 17.3454C7.37378 17.2202 7.62679 17.1019 7.84107 16.9904C8.0889 16.8641 8.31909 16.7298 8.53167 16.5877L8.69253 17.7895C8.52236 17.9269 8.30687 18.0698 8.04604 18.2182C7.84063 18.3398 7.5862 18.4648 7.28278 18.593C6.98519 18.7197 6.64944 18.8314 6.27551 18.928Z" fill="#373737"/>
<path fill-rule="evenodd" clip-rule="evenodd" d="M101.851 26.7862C96.3452 28.2005 90.344 31.1082 85.9178 35.6153C85.2695 36.2754 84.6561 36.9074 84.0705 37.5108C82.3948 39.2371 80.9469 40.7289 79.563 41.9731C77.6832 43.6632 75.8832 44.9336 73.7129 45.77C69.3898 47.436 63.7178 47.3292 53.2284 45.7429C34.3425 42.8868 20.3542 48.5153 13.6096 53.3517L12.9344 52.4101C19.9161 47.4037 34.2071 41.6946 53.4016 44.5973C63.9109 46.1867 69.2941 46.2313 73.2963 44.6889C75.2885 43.9212 76.9688 42.7475 78.7884 41.1115C80.1405 39.8958 81.5487 38.4451 83.2135 36.73C83.8041 36.1215 84.427 35.4798 85.0912 34.8035C89.6987 30.1117 95.9045 27.1175 101.563 25.664C104.395 24.9366 107.106 24.5906 109.432 24.6164C110.376 24.6269 111.267 24.6988 112.084 24.8357C112.513 24.0684 113.265 23.4887 114.196 23.3094C115.872 22.9868 117.492 24.0835 117.814 25.7591C118.137 27.4347 117.04 29.0545 115.365 29.3772C113.689 29.6998 112.069 28.6031 111.747 26.9275C111.683 26.5963 111.674 26.2673 111.715 25.95C111.023 25.8441 110.254 25.7842 109.419 25.7749C107.211 25.7504 104.601 26.0797 101.851 26.7862Z" fill="#373737"/>
</svg>
