<svg width="535" height="254" viewBox="0 0 535 254" fill="none" xmlns="http://www.w3.org/2000/svg">
<path d="M272.15 105.851C271.327 106.425 270.368 107.005 269.272 107.594C268.344 108.083 267.241 108.59 265.962 109.114C264.689 109.665 263.26 110.145 261.674 110.555C249.037 113.819 240.976 108.703 237.49 95.2085C236.516 91.4383 236.135 88.1389 236.348 85.3103C236.553 82.4558 237.215 79.969 238.331 77.8499C239.448 75.7308 240.965 73.9798 242.882 72.597C244.8 71.2142 246.993 70.2038 249.463 69.5657C252.688 68.7329 255.56 68.6844 258.08 69.4203C260.6 70.1562 262.694 71.4458 264.363 73.2892C266.051 75.0998 267.233 77.2074 267.91 79.6122C268.091 80.3142 268.281 81.2084 268.478 82.2946C268.695 83.3481 268.872 84.3563 269.01 85.3192C269.167 86.2494 269.234 86.884 269.21 87.2229L244.99 93.4793L245.352 94.8834C246.219 98.2376 247.408 100.746 248.919 102.408C250.43 104.07 252.186 105.073 254.189 105.415C256.21 105.725 258.404 105.574 260.77 104.963C262.253 104.58 263.636 104.14 264.922 103.641C266.227 103.11 267.373 102.606 268.359 102.129C269.521 101.58 270.582 101.014 271.541 100.434L272.15 105.851ZM251 74.8688C249.778 75.1844 248.645 75.685 247.602 76.3706C246.578 77.0234 245.725 77.9094 245.043 79.0286C244.361 80.1477 243.896 81.5159 243.649 83.1332C243.42 84.7178 243.53 86.7003 243.978 89.0808L262.427 84.3154C262.299 83.8214 262.228 83.493 262.214 83.3303C262.206 83.1935 262.165 82.9822 262.092 82.6962L261.94 82.1111C260.983 78.8358 259.52 76.6619 257.551 75.5895C255.576 74.4911 253.392 74.2508 251 74.8688Z" fill="white"/>
<path d="M221.392 120.96C219.624 121.417 218.071 121.582 216.735 121.455C215.399 121.329 214.216 120.83 213.187 119.959C211.2 118.281 209.532 114.829 208.182 109.602L202.298 86.8248L196.76 88.2554L195.712 84.1991L201.523 82.698L199.313 69.9552L204.833 67.323L208.349 80.9349L218.333 78.3558L219.381 82.412L209.513 84.9609L215.79 109.26C216.515 112.068 217.24 113.905 217.963 114.773C218.712 115.633 220.036 115.818 221.934 115.328C222.636 115.147 223.305 114.946 223.942 114.726C224.572 114.48 225.133 114.238 225.627 114L227.174 113.225L227.85 118.418C227.642 118.582 227.403 118.728 227.13 118.853C226.864 119.005 226.569 119.151 226.244 119.29C225.699 119.542 225.021 119.814 224.209 120.107C223.423 120.394 222.484 120.678 221.392 120.96Z" fill="white"/>
<path d="M186.892 119.928C187.282 121.436 187.679 122.331 188.086 122.615C188.485 122.872 189.153 122.88 190.089 122.638C190.375 122.564 190.674 122.487 190.986 122.407C191.317 122.293 191.613 122.203 191.873 122.136L192.687 127.542C192.687 127.542 192.404 127.629 191.839 127.803C191.299 127.97 190.695 128.154 190.026 128.354C189.363 128.581 188.824 128.748 188.408 128.856C186.926 129.238 185.682 129.255 184.676 128.904C183.663 128.528 182.881 128.023 182.329 127.389C181.77 126.729 181.43 126.165 181.309 125.697C180.958 126.592 180.344 127.596 179.467 128.71C178.583 129.799 177.292 130.867 175.593 131.916C173.888 132.939 171.619 133.816 168.785 134.549C165.326 135.442 162.253 135.14 159.564 133.643C156.895 132.114 155.11 129.607 154.21 126.123C153.404 123.003 153.647 120.402 154.94 118.321C156.233 116.239 158.168 114.547 160.743 113.244C163.312 111.914 166.105 110.86 169.121 110.081C170.031 109.846 170.925 109.657 171.804 109.513C172.675 109.343 173.456 109.197 174.145 109.075L176.371 108.832L175.232 104.425C174.514 101.643 173.694 99.6497 172.772 98.4454C171.844 97.215 170.66 96.5501 169.22 96.4506C167.806 96.3444 165.981 96.5801 163.744 97.1577C161.144 97.8294 158.81 98.7237 156.74 99.8406C154.691 100.925 152.976 101.964 151.596 102.958L150.885 96.9845C151.973 96.1488 153.458 95.2384 155.339 94.2532C157.213 93.242 159.724 92.33 162.87 91.5173C167.082 90.4293 170.464 90.1521 173.015 90.6858C175.566 91.2196 177.583 92.6401 179.067 94.9473C180.576 97.2479 181.875 100.504 182.963 104.717L186.892 119.928ZM171.45 114.264C170.306 114.56 169.036 114.957 167.639 115.456C166.236 115.93 164.945 116.569 163.765 117.372C162.579 118.15 161.685 119.144 161.082 120.354C160.499 121.531 160.429 122.977 160.872 124.693C161.389 126.696 162.409 128.013 163.932 128.646C165.48 129.272 167.437 129.28 169.804 128.669C172.456 127.984 174.585 127.045 176.191 125.854C177.816 124.63 179.048 123.493 179.887 122.444L177.439 112.967L175.497 113.343L171.45 114.264Z" fill="white"/>
<path d="M140.929 139.747C140.107 140.32 139.147 140.9 138.051 141.489C137.123 141.978 136.02 142.485 134.741 143.009C133.469 143.56 132.039 144.04 130.453 144.45C117.816 147.714 109.755 142.599 106.269 129.104C105.295 125.333 104.915 122.034 105.127 119.206C105.333 116.351 105.994 113.864 107.111 111.745C108.228 109.626 109.745 107.875 111.662 106.492C113.579 105.109 115.773 104.099 118.243 103.461C121.467 102.628 124.339 102.58 126.859 103.315C129.379 104.051 131.474 105.341 133.142 107.184C134.831 108.995 136.013 111.103 136.69 113.507C136.871 114.209 137.06 115.104 137.258 116.19C137.474 117.243 137.651 118.252 137.789 119.214C137.946 120.145 138.013 120.779 137.99 121.118L113.769 127.374L114.132 128.779C114.998 132.133 116.187 134.641 117.698 136.303C119.209 137.965 120.966 138.968 122.968 139.31C124.99 139.62 127.184 139.47 129.55 138.858C131.032 138.476 132.416 138.035 133.702 137.536C135.007 137.005 136.152 136.501 137.139 136.024C138.3 135.475 139.361 134.91 140.32 134.329L140.929 139.747ZM119.779 108.764C118.557 109.08 117.424 109.58 116.381 110.266C115.357 110.919 114.504 111.805 113.822 112.924C113.141 114.043 112.676 115.411 112.428 117.028C112.199 118.613 112.309 120.595 112.758 122.976L131.206 118.211C131.078 117.717 131.007 117.388 130.993 117.225C130.986 117.089 130.945 116.877 130.871 116.591L130.72 116.006C129.763 112.731 128.3 110.557 126.331 109.485C124.355 108.386 122.171 108.146 119.779 108.764Z" fill="white"/>
<path d="M78.1328 157.216L67.8062 117.238L72.7368 115.548L75.2907 119.798C76.3958 117.848 77.7606 116.206 79.3851 114.871C81.0096 113.536 82.8099 112.614 84.7861 112.103C85.3061 111.969 85.8266 111.89 86.3475 111.866C86.8616 111.817 87.3272 111.793 87.7441 111.797C88.161 111.8 88.6269 111.832 89.142 111.893L89.7246 117.692C89.6005 117.641 89.3949 117.597 89.108 117.56C88.8866 117.562 88.5741 117.587 88.1707 117.636C87.7605 117.659 87.2434 117.751 86.6194 117.912C85.1373 118.295 83.8225 118.842 82.6752 119.555C81.5279 120.267 80.5563 120.962 79.7604 121.639C79.3075 122.033 78.8743 122.45 78.4609 122.89C78.0408 123.304 77.6533 123.737 77.2986 124.189L85.3483 155.352L78.1328 157.216Z" fill="white"/>
<path d="M49.4209 165.381C47.2627 165.939 45.0693 166.145 42.8405 165.999C40.6117 165.854 38.4864 165.196 36.4646 164.026C34.4101 162.837 32.5463 161.045 30.8731 158.648C29.2 156.251 27.8764 153.167 26.9026 149.397C26.2175 146.745 25.8273 144.321 25.732 142.127C25.656 139.9 25.8195 137.902 26.2226 136.134C26.5929 134.346 27.1898 132.791 28.0132 131.469C29.2609 129.427 30.7889 127.826 32.5971 126.666C34.4246 125.472 36.4045 124.6 38.5366 124.05C40.2527 123.606 41.8431 123.32 43.3076 123.192C44.7654 123.037 46.0383 122.972 47.1263 122.996C48.4549 122.985 49.6151 123.074 50.6066 123.262L52.5517 128.376C52.0107 128.322 51.434 128.29 50.8216 128.282C50.2286 128.241 49.6162 128.233 48.9846 128.257C47.9101 128.285 46.6829 128.366 45.3031 128.501C43.9233 128.636 42.4923 128.894 41.0102 129.277C37.422 130.204 35.0754 132.072 33.9705 134.882C33.4088 136.358 33.1328 138.135 33.1425 140.213C33.1782 142.284 33.5453 144.671 34.2438 147.376C35.5804 152.55 37.4975 156.16 39.9951 158.205C41.2276 159.218 42.5807 159.839 44.0546 160.069C45.5217 160.272 47.1264 160.149 48.8685 159.699C50.3506 159.316 51.7312 158.863 53.0103 158.338C54.3086 157.781 55.4346 157.254 56.3882 156.758C57.4911 156.196 58.5156 155.598 59.4617 154.966L60.1776 160.314C59.4202 160.926 58.4612 161.562 57.3004 162.222C56.3862 162.764 55.254 163.32 53.9036 163.89C52.5792 164.454 51.085 164.951 49.4209 165.381Z" fill="white"/>
<path d="M177.803 33.5181C178.192 35.0262 178.59 35.922 178.996 36.2054C179.396 36.4629 180.063 36.4707 180.999 36.2289C181.285 36.155 181.584 36.0778 181.896 35.9972C182.228 35.8838 182.523 35.7936 182.783 35.7264L183.597 41.1328C183.597 41.1328 183.315 41.2197 182.749 41.3935C182.21 41.5605 181.606 41.7444 180.936 41.945C180.274 42.1716 179.735 42.3387 179.319 42.4462C177.836 42.829 176.592 42.8452 175.587 42.4948C174.574 42.1184 173.792 41.6132 173.24 40.9792C172.681 40.3192 172.341 39.7551 172.22 39.2871C171.869 40.1822 171.255 41.1868 170.378 42.301C169.494 43.3891 168.203 44.4577 166.504 45.5066C164.799 46.5295 162.529 47.407 159.695 48.1391C156.237 49.0324 153.164 48.7307 150.475 47.234C147.805 45.7046 146.021 43.1978 145.121 39.7136C144.315 36.5933 144.558 33.9925 145.851 31.9111C147.144 29.8297 149.078 28.1374 151.654 26.8341C154.223 25.5049 157.016 24.4507 160.032 23.6716C160.942 23.4365 161.836 23.2471 162.714 23.1035C163.586 22.9338 164.366 22.7877 165.056 22.6651L167.282 22.423L166.143 18.0157C165.424 15.2335 164.604 13.2402 163.683 12.0359C162.755 10.8056 161.571 10.1407 160.131 10.0412C158.716 9.93497 156.891 10.1707 154.655 10.7483C152.055 11.4199 149.72 12.3142 147.651 13.4312C145.601 14.5154 143.887 15.5547 142.507 16.549L141.796 10.5751C142.884 9.73937 144.368 8.82892 146.249 7.84372C148.124 6.83251 150.634 5.92057 153.781 5.10787C157.993 4.0198 161.375 3.74264 163.925 4.27638C166.476 4.81013 168.494 6.23062 169.977 8.53787C171.487 10.8384 172.786 14.0948 173.874 18.3071L177.803 33.5181ZM162.361 27.8546C161.217 28.1501 159.946 28.5476 158.55 29.047C157.146 29.5204 155.855 30.1591 154.676 30.9629C153.49 31.7408 152.596 32.7346 151.993 33.9443C151.409 35.1213 151.339 36.5678 151.783 38.2839C152.3 40.2861 153.32 41.6036 154.842 42.2366C156.391 42.8628 158.348 42.8704 160.714 42.2592C163.367 41.5741 165.496 40.6358 167.102 39.4443C168.727 38.2201 169.959 37.0836 170.798 36.0349L168.349 26.5573L166.408 26.9339L162.361 27.8546Z" fill="white"/>
<path d="M122.377 57.7785C120.219 58.336 118.026 58.542 115.797 58.3965C113.568 58.2511 111.443 57.5935 109.421 56.4238C107.367 55.2349 105.503 53.4419 103.83 51.0449C102.157 48.648 100.833 45.5644 99.8591 41.7941C99.174 39.1419 98.7838 36.7187 98.6885 34.5244C98.6125 32.2973 98.7761 30.2997 99.1791 28.5313C99.5495 26.7437 100.146 25.1889 100.97 23.8667C102.217 21.8247 103.745 20.2235 105.554 19.063C107.381 17.8698 109.361 16.9978 111.493 16.4471C113.209 16.0038 114.8 15.7178 116.264 15.5891C117.722 15.4344 118.995 15.3691 120.083 15.3932C121.411 15.3828 122.572 15.4715 123.563 15.6592L125.508 20.7734C124.967 20.719 124.391 20.6877 123.778 20.6794C123.185 20.6385 122.573 20.6302 121.941 20.6547C120.867 20.6826 119.639 20.7638 118.26 20.8984C116.88 21.0329 115.449 21.2916 113.967 21.6744C110.379 22.6013 108.032 24.4694 106.927 27.2789C106.365 28.7553 106.089 30.5324 106.099 32.6102C106.135 34.6812 106.502 37.0688 107.2 39.773C108.537 44.9474 110.454 48.5572 112.952 50.6025C114.184 51.6155 115.537 52.2367 117.011 52.4662C118.478 52.6697 120.083 52.5465 121.825 52.0965C123.307 51.7136 124.688 51.2599 125.967 50.7354C127.265 50.1781 128.391 49.6515 129.345 49.1556C130.448 48.5933 131.472 47.9958 132.418 47.3631L133.134 52.7117C132.377 53.3234 131.418 53.9594 130.257 54.6198C129.343 55.1611 128.211 55.717 126.86 56.2877C125.536 56.8517 124.042 57.3486 122.377 57.7785Z" fill="white"/>
<path d="M71.1744 71.0047C67.1702 72.0391 63.6299 72.0244 60.5538 70.9606C57.4776 69.8969 54.9028 67.9824 52.8295 65.2173C50.7561 62.4522 49.1955 59.0415 48.1478 54.9853C46.5157 48.6668 46.6558 43.2497 48.5681 38.7339C50.5064 34.2114 54.4788 31.1744 60.4852 29.6229C66.4656 28.0781 71.3858 28.8181 75.2459 31.8428C79.132 34.8608 81.8911 39.5291 83.5232 45.8475C84.571 49.9038 84.8574 53.6436 84.3826 57.0669C83.9078 60.4902 82.5823 63.4121 80.4061 65.8326C78.2559 68.2464 75.1787 69.9704 71.1744 71.0047ZM69.764 65.5444C71.7141 65.0406 73.2582 64.2535 74.3962 63.1829C75.5603 62.1056 76.3707 60.7868 76.8275 59.2265C77.3103 57.6594 77.4789 55.8962 77.3333 53.9368C77.181 51.9513 76.8195 49.8535 76.2486 47.6434C75.006 42.8331 73.2751 39.2999 71.056 37.044C68.8368 34.7881 65.79 34.1605 61.9158 35.1613C59.9656 35.665 58.4148 36.4262 57.2634 37.4448C56.1312 38.4306 55.317 39.6811 54.8208 41.1961C54.3438 42.6784 54.1685 44.4156 54.2948 46.4078C54.4143 48.374 54.7898 50.5791 55.4211 53.0233C55.992 55.2334 56.7046 57.2406 57.559 59.0447C58.4066 60.8228 59.408 62.2837 60.5634 63.4276C61.7447 64.5648 63.0794 65.3295 64.5676 65.7217C66.0817 66.1072 67.8138 66.0481 69.764 65.5444Z" fill="white"/>
<path d="M27.9285 82.1755C25.7703 82.733 23.5768 82.939 21.3481 82.7935C19.1193 82.6481 16.994 81.9905 14.9722 80.8208C12.9177 79.6319 11.0538 77.8389 9.38068 75.442C7.70753 73.045 6.38401 69.9614 5.41012 66.1911C4.72504 63.539 4.33486 61.1157 4.23957 58.9214C4.16357 56.6943 4.3271 54.6967 4.73017 52.9283C5.10051 51.1407 5.6974 49.5859 6.52081 48.2637C7.76851 46.2217 9.29646 44.6205 11.1047 43.46C12.9322 42.2668 14.912 41.3948 17.0442 40.8441C18.7603 40.4008 20.3506 40.1148 21.8152 39.9861C23.273 39.8314 24.5459 39.7661 25.6338 39.7902C26.9625 39.7798 28.1226 39.8685 29.1141 40.0562L31.0593 45.1704C30.5182 45.116 29.9415 45.0847 29.3292 45.0764C28.7361 45.0355 28.1238 45.0272 27.4922 45.0517C26.4177 45.0796 25.1905 45.1608 23.8107 45.2954C22.4308 45.4299 20.9999 45.6886 19.5178 46.0714C15.9295 46.9983 13.5829 48.8664 12.478 51.6759C11.9164 53.1523 11.6404 54.9294 11.6501 57.0072C11.6858 59.0782 12.0529 61.4658 12.7514 64.17C14.088 69.3444 16.0051 72.9542 18.5027 74.9995C19.7352 76.0125 21.0883 76.6337 22.5622 76.8632C24.0293 77.0667 25.6339 76.9435 27.3761 76.4935C28.8582 76.1106 30.2387 75.657 31.5178 75.1324C32.8162 74.5751 33.9422 74.0485 34.8958 73.5526C35.9987 72.9903 37.0232 72.3928 37.9692 71.7601L38.6851 77.1087C37.9278 77.7204 36.9688 78.3564 35.808 79.0168C34.8938 79.5581 33.7615 80.114 32.4112 80.6847C31.0868 81.2487 29.5926 81.7457 27.9285 82.1755Z" fill="white"/>
<path fill-rule="evenodd" clip-rule="evenodd" d="M453.276 117.148C428.773 123.442 402.065 136.382 382.367 156.441C379.482 159.379 376.752 162.191 374.146 164.876C366.689 172.559 360.245 179.198 354.086 184.735C345.72 192.257 337.71 197.911 328.051 201.633C308.811 209.048 283.569 208.572 236.887 201.513C152.837 188.802 90.584 213.851 60.5677 235.375L57.5629 231.184C88.6344 208.904 152.235 183.496 237.658 196.414C284.428 203.487 308.385 203.686 326.197 196.822C335.063 193.405 342.541 188.182 350.639 180.901C356.656 175.491 362.923 169.035 370.332 161.402C372.961 158.694 375.733 155.838 378.688 152.828C399.194 131.948 426.812 118.622 451.994 112.154C464.596 108.917 476.664 107.377 487.014 107.492C491.215 107.538 495.183 107.858 498.815 108.467C500.726 105.053 504.074 102.473 508.217 101.675C515.674 100.239 522.883 105.12 524.319 112.577C525.755 120.034 520.874 127.243 513.417 128.679C505.96 130.115 498.751 125.234 497.315 117.777C497.031 116.303 496.994 114.838 497.175 113.426C494.096 112.955 490.675 112.689 486.956 112.647C477.13 112.538 465.516 114.004 453.276 117.148Z" fill="white"/>
</svg>
