<svg width="190" height="26" viewBox="0 0 190 26" fill="none" xmlns="http://www.w3.org/2000/svg">
<path fill-rule="evenodd" clip-rule="evenodd" d="M162.089 2.15383C152.109 2.76484 140.777 5.7883 131.634 12.0952C130.295 13.0189 129.025 13.9057 127.813 14.7523C124.345 17.1745 121.348 19.2676 118.544 20.9548C114.736 23.2467 111.205 24.8409 107.178 25.563C99.1577 27.0014 89.3972 24.9323 71.8086 18.7094C40.1408 7.50509 14.11 12.5696 0.852923 18.6743L0 16.8252C13.7231 10.5059 40.3036 5.40276 72.4888 16.7901C90.1107 23.0248 99.393 24.8906 106.818 23.559C110.514 22.8961 113.806 21.429 117.493 19.2106C120.233 17.5621 123.147 15.5266 126.593 13.1201C127.815 12.2664 129.105 11.366 130.477 10.4197C139.994 3.8543 151.708 0.749517 161.964 0.12159C167.097 -0.19266 171.895 0.111266 175.903 0.928615C177.53 1.26044 179.046 1.68075 180.41 2.1881C181.406 1.00683 182.899 0.256415 184.566 0.256415C187.567 0.256415 190 2.68728 190 5.6859C190 8.68451 187.567 11.1154 184.566 11.1154C181.565 11.1154 179.132 8.68451 179.132 5.6859C179.132 5.09314 179.227 4.52257 179.403 3.98858C178.243 3.57594 176.935 3.2172 175.495 2.92354C171.69 2.14755 167.074 1.84862 162.089 2.15383Z" fill="#373737"/>
</svg>
